# This file uses centimeters as units for non-parametric coordinates.

mtllib appleCore.mtl
g default
v -12.631829 10.471736 -0.212989
v -12.877767 10.471736 -0.212989
v -13.000736 10.471736 -0.000000
v -12.877767 10.471736 0.212989
v -12.631829 10.471736 0.212989
v -12.508860 10.471736 0.000000
v -12.631829 11.592120 -0.212989
v -12.877767 11.592120 -0.212989
v -13.000736 11.592120 -0.000000
v -12.877767 11.592120 0.212989
v -12.631829 11.592120 0.212989
v -12.508860 11.592120 0.000000
v -12.754798 10.471736 0.000000
v -12.754798 11.592120 0.000000
vt 0.578125 0.020934
vt 0.421875 0.020934
vt 0.343750 0.156250
vt 0.421875 0.291566
vt 0.578125 0.291566
vt 0.656250 0.156250
vt 0.375000 0.312500
vt 0.416667 0.312500
vt 0.458333 0.312500
vt 0.500000 0.312500
vt 0.541667 0.312500
vt 0.583333 0.312500
vt 0.625000 0.312500
vt 0.375000 0.688440
vt 0.416667 0.688440
vt 0.458333 0.688440
vt 0.500000 0.688440
vt 0.541667 0.688440
vt 0.583333 0.688440
vt 0.625000 0.688440
vt 0.578125 0.708434
vt 0.421875 0.708434
vt 0.343750 0.843750
vt 0.421875 0.979066
vt 0.578125 0.979066
vt 0.656250 0.843750
vt 0.500000 0.150000
vt 0.500000 0.837500
vn 0.000000 0.000000 -1.000000
vn 0.000000 0.000000 -1.000000
vn 0.000000 0.000000 -1.000000
vn 0.000000 0.000000 -1.000000
vn -0.866025 0.000000 -0.500000
vn -0.866025 0.000000 -0.500000
vn -0.866025 0.000000 -0.500000
vn -0.866025 0.000000 -0.500000
vn -0.866025 0.000000 0.500000
vn -0.866025 0.000000 0.500000
vn -0.866025 0.000000 0.500000
vn -0.866025 0.000000 0.500000
vn -0.000000 0.000000 1.000000
vn -0.000000 0.000000 1.000000
vn -0.000000 0.000000 1.000000
vn -0.000000 0.000000 1.000000
vn 0.866025 0.000000 0.500000
vn 0.866025 0.000000 0.500000
vn 0.866025 0.000000 0.500000
vn 0.866025 0.000000 0.500000
vn 0.866025 0.000000 -0.500000
vn 0.866025 0.000000 -0.500000
vn 0.866025 0.000000 -0.500000
vn 0.866025 0.000000 -0.500000
vn 0.000000 -1.000000 0.000000
vn 0.000000 -1.000000 0.000000
vn 0.000000 -1.000000 0.000000
vn 0.000000 -1.000000 0.000000
vn 0.000000 -1.000000 -0.000000
vn 0.000000 -1.000000 -0.000000
vn 0.000000 -1.000000 0.000000
vn 0.000000 1.000000 0.000000
vn 0.000000 1.000000 -0.000000
vn 0.000000 1.000000 0.000000
vn 0.000000 1.000000 -0.000000
vn 0.000000 1.000000 0.000000
vn 0.000000 1.000000 0.000000
vn 0.000000 1.000000 0.000000
s off
g pCylinder18
usemtl initialShadingGroup
f 1/7/1 2/8/2 8/15/3 7/14/4
f 2/8/5 3/9/6 9/16/7 8/15/8
f 3/9/9 4/10/10 10/17/11 9/16/12
f 4/10/13 5/11/14 11/18/15 10/17/16
f 5/11/17 6/12/18 12/19/19 11/18/20
f 6/12/21 1/13/22 7/20/23 12/19/24
s 1
f 2/2/25 1/1/26 13/27/27
f 3/3/28 2/2/25 13/27/27
f 4/4/29 3/3/28 13/27/27
f 5/5/30 4/4/29 13/27/27
f 6/6/31 5/5/30 13/27/27
f 1/1/26 6/6/31 13/27/27
s 2
f 7/25/32 8/24/33 14/28/34
f 8/24/33 9/23/35 14/28/34
f 9/23/35 10/22/36 14/28/34
f 10/22/36 11/21/37 14/28/34
f 11/21/37 12/26/38 14/28/34
f 12/26/38 7/25/32 14/28/34
g default
v -12.508011 7.770510 -0.642788
v -13.089470 7.883820 -0.984808
v -13.750680 8.012671 -0.866026
v -14.182255 8.096772 -0.342020
v -14.182255 8.096772 0.342020
v -13.750680 8.012671 0.866025
v -13.089470 7.883820 0.984808
v -12.508011 7.770510 0.642788
v -12.278375 7.725761 0.000000
v -11.997971 10.387828 -0.642788
v -12.579430 10.501137 -0.984808
v -13.240641 10.629988 -0.866026
v -13.672215 10.714089 -0.342020
v -13.672215 10.714089 0.342020
v -13.240641 10.629988 0.866025
v -12.579430 10.501137 0.984808
v -11.997972 10.387828 0.642788
v -11.768336 10.343078 0.000000
v -13.259912 7.917034 0.000000
v -12.749872 10.534351 0.000000
v -13.474225 8.949942 0.156364
v -13.474225 8.949942 -0.156364
v -13.276919 8.911492 -0.395928
v -12.974628 8.852585 -0.450233
v -12.708797 8.800782 -0.293869
v -12.603813 8.780323 0.000000
v -12.708797 8.800782 0.293869
v -12.974628 8.852585 0.450233
v -13.276919 8.911492 0.395928
v -13.466451 9.731200 0.204497
v -13.466451 9.731200 -0.204497
v -13.208408 9.680915 -0.517805
v -12.813064 9.603874 -0.588827
v -12.465404 9.536125 -0.384329
v -12.328102 9.509369 -0.000000
v -12.465404 9.536125 0.384329
v -12.813064 9.603874 0.588827
v -13.208409 9.680915 0.517805
vt 0.619694 0.055814
vt 0.527133 0.002374
vt 0.421875 0.020934
vt 0.353173 0.102809
vt 0.353173 0.209691
vt 0.421875 0.291566
vt 0.527133 0.310126
vt 0.619694 0.256686
vt 0.656250 0.156250
vt 0.375000 0.312500
vt 0.402778 0.312500
vt 0.430556 0.312500
vt 0.458333 0.312500
vt 0.486111 0.312500
vt 0.513889 0.312500
vt 0.541667 0.312500
vt 0.569445 0.312500
vt 0.597222 0.312500
vt 0.625000 0.312500
vt 0.375000 0.688440
vt 0.402778 0.688440
vt 0.430556 0.688440
vt 0.458333 0.688440
vt 0.486111 0.688440
vt 0.513889 0.688440
vt 0.541667 0.688440
vt 0.569445 0.688440
vt 0.597222 0.688440
vt 0.625000 0.688440
vt 0.619694 0.743314
vt 0.527133 0.689874
vt 0.421875 0.708434
vt 0.353173 0.790309
vt 0.353173 0.897191
vt 0.421875 0.979066
vt 0.527133 0.997626
vt 0.619694 0.944186
vt 0.656250 0.843750
vt 0.500000 0.150000
vt 0.500000 0.837500
vt 0.486111 0.453500
vt 0.458333 0.453500
vt 0.430556 0.453500
vt 0.402778 0.453500
vt 0.625000 0.453500
vt 0.375000 0.453500
vt 0.597222 0.453500
vt 0.569445 0.453500
vt 0.541667 0.453500
vt 0.513889 0.453500
vt 0.486111 0.557976
vt 0.458333 0.557976
vt 0.430556 0.557976
vt 0.402778 0.557976
vt 0.625000 0.557976
vt 0.375000 0.557976
vt 0.597222 0.557976
vt 0.569445 0.557976
vt 0.541667 0.557976
vt 0.513889 0.557976
vn 0.523960 0.363053 -0.770492
vn 0.523960 0.363053 -0.770492
vn 0.524067 0.170735 -0.834388
vn 0.524022 0.169900 -0.834587
vn -0.061377 0.487792 -0.870799
vn -0.061377 0.487792 -0.870799
vn -0.111534 0.300787 -0.947147
vn -0.111762 0.299865 -0.947412
vn -0.570150 0.596162 -0.565262
vn -0.570150 0.596162 -0.565262
vn -0.668677 0.414559 -0.617262
vn -0.668931 0.413975 -0.617378
vn -0.769526 0.638615 0.000000
vn -0.769526 0.638615 0.000000
vn -0.888352 0.459164 0.000000
vn -0.888352 0.459164 0.000000
vn -0.570150 0.596162 0.565262
vn -0.570150 0.596162 0.565262
vn -0.668931 0.413975 0.617378
vn -0.668677 0.414559 0.617262
vn -0.061377 0.487792 0.870799
vn -0.061377 0.487792 0.870799
vn -0.111762 0.299865 0.947412
vn -0.111535 0.300787 0.947147
vn 0.523960 0.363053 0.770492
vn 0.523960 0.363053 0.770492
vn 0.524022 0.169900 0.834587
vn 0.524067 0.170735 0.834388
vn 0.909854 0.280780 0.305498
vn 0.909854 0.280780 0.305498
vn 0.940159 0.085046 0.329951
vn 0.940140 0.085382 0.329921
vn 0.909854 0.280780 -0.305497
vn 0.909854 0.280780 -0.305497
vn 0.940140 0.085382 -0.329920
vn 0.940159 0.085046 -0.329951
vn -0.191273 -0.981537 0.000000
vn -0.191273 -0.981537 0.000000
vn -0.191273 -0.981537 0.000000
vn -0.191273 -0.981537 0.000000
vn -0.191273 -0.981537 0.000000
vn -0.191273 -0.981537 0.000000
vn -0.191273 -0.981537 0.000000
vn -0.191273 -0.981537 0.000000
vn -0.191273 -0.981537 0.000000
vn -0.191273 -0.981537 0.000000
vn 0.191273 0.981537 0.000000
vn 0.191273 0.981537 0.000000
vn 0.191273 0.981537 0.000000
vn 0.191273 0.981537 0.000000
vn 0.191273 0.981537 0.000000
vn 0.191273 0.981537 0.000000
vn 0.191273 0.981537 0.000000
vn 0.191273 0.981537 0.000000
vn 0.191273 0.981537 0.000000
vn 0.191273 0.981537 0.000000
vn -0.990150 -0.140009 0.000000
vn -0.990150 -0.140009 0.000000
vn -0.773260 -0.180234 -0.607935
vn -0.773331 -0.179122 -0.608173
vn -0.222505 -0.281272 -0.933476
vn -0.222282 -0.279620 -0.934025
vn 0.406896 -0.396286 -0.823039
vn 0.407415 -0.394883 -0.823457
vn 0.819651 -0.471314 -0.325632
vn 0.819937 -0.470772 -0.325696
vn 0.819937 -0.470772 0.325696
vn 0.819651 -0.471314 0.325632
vn 0.407415 -0.394883 0.823457
vn 0.406896 -0.396286 0.823039
vn -0.222282 -0.279620 0.934025
vn -0.222505 -0.281272 0.933476
vn -0.773331 -0.179122 0.608173
vn -0.773260 -0.180234 0.607935
vn -0.978782 -0.204904 0.000000
vn -0.978782 -0.204904 0.000000
vn -0.767467 -0.243636 -0.592989
vn -0.767467 -0.243636 -0.592989
vn -0.230318 -0.342076 -0.911009
vn -0.230318 -0.342076 -0.911009
vn 0.384085 -0.454654 -0.803597
vn 0.384085 -0.454654 -0.803597
vn 0.787131 -0.528493 -0.317995
vn 0.787131 -0.528493 -0.317995
vn 0.787131 -0.528493 0.317995
vn 0.787131 -0.528493 0.317995
vn 0.384085 -0.454654 0.803597
vn 0.384085 -0.454654 0.803597
vn -0.230318 -0.342076 0.911009
vn -0.230318 -0.342076 0.911009
vn -0.767467 -0.243636 0.592989
vn -0.767467 -0.243636 0.592989
s 1
g pCylinder17
usemtl initialShadingGroup
f 15/38/39 16/39/40 38/72/41 39/74/42
s 2
f 16/39/43 17/40/44 37/71/45 38/72/46
s 3
f 17/40/47 18/41/48 36/70/49 37/71/50
s 4
f 18/41/51 19/42/52 35/69/53 36/70/54
s 5
f 19/42/55 20/43/56 43/78/57 35/69/58
s 6
f 20/43/59 21/44/60 42/77/61 43/78/62
s 7
f 21/44/63 22/45/64 41/76/65 42/77/66
s 8
f 22/45/67 23/46/68 40/75/69 41/76/70
s 9
f 23/46/71 15/47/72 39/73/73 40/75/74
s 10
f 16/30/75 15/29/76 33/67/77
f 17/31/78 16/30/75 33/67/77
f 18/32/79 17/31/78 33/67/77
f 19/33/80 18/32/79 33/67/77
f 20/34/81 19/33/80 33/67/77
f 21/35/82 20/34/81 33/67/77
f 22/36/83 21/35/82 33/67/77
f 23/37/84 22/36/83 33/67/77
f 15/29/76 23/37/84 33/67/77
s 11
f 24/65/85 25/64/86 34/68/87
f 25/64/86 26/63/88 34/68/87
f 26/63/88 27/62/89 34/68/87
f 27/62/89 28/61/90 34/68/87
f 28/61/90 29/60/91 34/68/87
f 29/60/91 30/59/92 34/68/87
f 30/59/92 31/58/93 34/68/87
f 31/58/93 32/66/94 34/68/87
f 32/66/94 24/65/85 34/68/87
s 4
f 36/70/54 35/69/53 44/79/95 45/80/96
s 3
f 37/71/50 36/70/49 45/80/97 46/81/98
s 2
f 38/72/46 37/71/45 46/81/99 47/82/100
s 1
f 39/74/42 38/72/41 47/82/101 48/84/102
s 9
f 40/75/74 39/73/73 48/83/103 49/85/104
s 8
f 41/76/70 40/75/69 49/85/105 50/86/106
s 7
f 42/77/66 41/76/65 50/86/107 51/87/108
s 6
f 43/78/62 42/77/61 51/87/109 52/88/110
s 5
f 35/69/58 43/78/57 52/88/111 44/79/112
s 4
f 45/80/96 44/79/95 28/52/113 27/51/114
s 3
f 46/81/98 45/80/97 27/51/115 26/50/116
s 2
f 47/82/100 46/81/99 26/50/117 25/49/118
s 1
f 48/84/102 47/82/101 25/49/119 24/48/120
s 9
f 49/85/104 48/83/103 24/57/121 32/56/122
s 8
f 50/86/106 49/85/105 32/56/123 31/55/124
s 7
f 51/87/108 50/86/107 31/55/125 30/54/126
s 6
f 52/88/110 51/87/109 30/54/127 29/53/128
s 5
f 44/79/112 52/88/111 29/53/129 28/52/130
