# This file uses centimeters as units for non-parametric coordinates.

mtllib teacup.mtl
g default
v -6.738474 6.490212 2.657794
v -6.880513 6.490212 2.379026
v -7.101745 6.490212 2.157794
v -7.380514 6.490212 2.015755
v -7.689531 6.490212 1.966811
v -7.998548 6.490212 2.015755
v -8.277316 6.490212 2.157794
v -8.498549 6.490212 2.379026
v -8.640588 6.490212 2.657794
v -8.689531 6.490212 2.966812
v -8.640588 6.490212 3.275829
v -8.498549 6.490212 3.554597
v -8.277316 6.490212 3.775829
v -7.998548 6.490212 3.917868
v -7.689531 6.490212 3.966812
v -7.380514 6.490212 3.917868
v -7.101746 6.490212 3.775829
v -6.880514 6.490212 3.554597
v -6.738474 6.490212 3.275829
v -6.689531 6.490212 2.966812
v -6.082970 7.979101 2.444808
v -6.322908 7.979101 1.973902
v -6.696621 7.979101 1.600189
v -7.167527 7.979101 1.360251
v -7.689531 7.979101 1.277574
v -8.211535 7.979101 1.360251
v -8.682440 7.979101 1.600189
v -9.056153 7.979101 1.973903
v -9.296092 7.979101 2.444808
v -9.378769 7.979101 2.966812
v -9.296092 7.979101 3.488815
v -9.056152 7.979101 3.959721
v -8.682440 7.979101 4.333434
v -8.211535 7.979101 4.573372
v -7.689531 7.979101 4.656049
v -7.167528 7.979101 4.573372
v -6.696622 7.979101 4.333434
v -6.322909 7.979101 3.959721
v -6.082970 7.979101 3.488815
v -6.000293 7.979101 2.966812
v -7.689531 6.490212 2.966812
v -7.689531 7.979101 2.966812
v -9.092157 6.989762 3.422553
v -9.164339 6.989762 2.966812
v -9.092157 6.989762 2.511071
v -8.882676 6.989762 2.099941
v -8.556401 6.989762 1.773667
v -8.145272 6.989762 1.564185
v -7.689531 6.989762 1.492003
v -7.233790 6.989762 1.564185
v -6.822660 6.989762 1.773666
v -6.496385 6.989762 2.099941
v -6.286904 6.989762 2.511071
v -6.214723 6.989762 2.966812
v -6.286905 6.989762 3.422553
v -6.496386 6.989762 3.833682
v -6.822660 6.989762 4.159956
v -7.233790 6.989762 4.369438
v -7.689531 6.989762 4.441620
v -8.145271 6.989762 4.369438
v -8.556401 6.989762 4.159957
v -8.882676 6.989762 3.833682
v -9.129618 7.978174 2.971419
v -9.422382 8.099425 2.973327
v -9.715147 7.978174 2.971419
v -9.836414 7.685445 2.966812
v -9.715147 7.392717 2.962205
v -9.422382 7.271465 2.960296
v -9.129618 7.392717 2.962205
v -9.008350 7.685445 2.966812
v -9.051812 8.053587 3.124073
v -9.422382 8.207063 3.126489
v -9.792953 8.053587 3.124073
v -9.946448 7.683062 3.118242
v -9.792953 7.312538 3.112411
v -9.422382 7.159061 3.109995
v -9.051812 7.312538 3.112411
v -8.898316 7.683062 3.118242
v -8.925920 8.180374 3.068213
v -9.422382 8.385990 3.071449
v -9.918845 8.180374 3.068213
v -10.124487 7.683972 3.060401
v -9.918845 7.187571 3.052588
v -9.422382 6.981955 3.049352
v -8.925920 7.187571 3.052588
v -8.720278 7.683972 3.060401
v -8.925920 8.183320 2.881035
v -9.422382 8.388936 2.884271
v -9.918845 8.183320 2.881035
v -10.124487 7.686918 2.873223
v -9.918845 7.190516 2.865410
v -9.422382 6.984900 2.862174
v -8.925920 7.190516 2.865410
v -8.720278 7.686918 2.873223
v -9.051812 8.058353 2.821213
v -9.422382 8.211829 2.823628
v -9.792953 8.058353 2.821213
v -9.946448 7.687829 2.815381
v -9.792953 7.317304 2.809550
v -9.422382 7.163828 2.807135
v -9.051812 7.317304 2.809550
v -8.898316 7.687829 2.815381
vt 0.648603 0.107966
vt 0.626409 0.064408
vt 0.591842 0.029841
vt 0.548284 0.007647
vt 0.500000 -0.000000
vt 0.451716 0.007647
vt 0.408159 0.029841
vt 0.373591 0.064409
vt 0.351397 0.107966
vt 0.343750 0.156250
vt 0.351397 0.204534
vt 0.373591 0.248091
vt 0.408159 0.282659
vt 0.451716 0.304853
vt 0.500000 0.312500
vt 0.548284 0.304853
vt 0.591841 0.282659
vt 0.626409 0.248091
vt 0.648603 0.204534
vt 0.656250 0.156250
vt 0.375000 0.312500
vt 0.387500 0.312500
vt 0.400000 0.312500
vt 0.412500 0.312500
vt 0.425000 0.312500
vt 0.437500 0.312500
vt 0.450000 0.312500
vt 0.462500 0.312500
vt 0.475000 0.312500
vt 0.487500 0.312500
vt 0.500000 0.312500
vt 0.512500 0.312500
vt 0.525000 0.312500
vt 0.537500 0.312500
vt 0.550000 0.312500
vt 0.562500 0.312500
vt 0.575000 0.312500
vt 0.587500 0.312500
vt 0.600000 0.312500
vt 0.612500 0.312500
vt 0.625000 0.312500
vt 0.375000 0.688440
vt 0.387500 0.688440
vt 0.400000 0.688440
vt 0.412500 0.688440
vt 0.425000 0.688440
vt 0.437500 0.688440
vt 0.450000 0.688440
vt 0.462500 0.688440
vt 0.475000 0.688440
vt 0.487500 0.688440
vt 0.500000 0.688440
vt 0.512500 0.688440
vt 0.525000 0.688440
vt 0.537500 0.688440
vt 0.550000 0.688440
vt 0.562500 0.688440
vt 0.575000 0.688440
vt 0.587500 0.688440
vt 0.600000 0.688440
vt 0.612500 0.688440
vt 0.625000 0.688440
vt 0.648603 0.795466
vt 0.626409 0.751908
vt 0.591842 0.717341
vt 0.548284 0.695147
vt 0.500000 0.687500
vt 0.451716 0.695147
vt 0.408159 0.717341
vt 0.373591 0.751909
vt 0.351397 0.795466
vt 0.343750 0.843750
vt 0.351397 0.892034
vt 0.373591 0.935591
vt 0.408159 0.970159
vt 0.451716 0.992353
vt 0.500000 1.000000
vt 0.548284 0.992353
vt 0.591841 0.970159
vt 0.626409 0.935591
vt 0.648603 0.892034
vt 0.656250 0.843750
vt 0.500000 0.150000
vt 0.500000 0.837500
vt 0.500000 0.476919
vt 0.487500 0.476919
vt 0.475000 0.476919
vt 0.462500 0.476919
vt 0.450000 0.476919
vt 0.437500 0.476919
vt 0.425000 0.476919
vt 0.412500 0.476919
vt 0.400000 0.476919
vt 0.387500 0.476919
vt 0.625000 0.476919
vt 0.375000 0.476919
vt 0.612500 0.476919
vt 0.600000 0.476919
vt 0.587500 0.476919
vt 0.575000 0.476919
vt 0.562500 0.476919
vt 0.550000 0.476919
vt 0.537500 0.476919
vt 0.525000 0.476919
vt 0.512500 0.476919
vt 0.125000 1.000000
vt 0.000000 1.000000
vt 0.000000 0.800000
vt 0.125000 0.800000
vt 0.250000 1.000000
vt 0.250000 0.800000
vt 0.375000 1.000000
vt 0.375000 0.800000
vt 0.500000 1.000000
vt 0.500000 0.800000
vt 0.625000 1.000000
vt 0.625000 0.800000
vt 0.750000 1.000000
vt 0.750000 0.800000
vt 0.875000 1.000000
vt 0.875000 0.800000
vt 1.000000 1.000000
vt 1.000000 0.800000
vt 0.000000 0.600000
vt 0.125000 0.600000
vt 0.250000 0.600000
vt 0.375000 0.600000
vt 0.500000 0.600000
vt 0.625000 0.600000
vt 0.750000 0.600000
vt 0.875000 0.600000
vt 1.000000 0.600000
vt 0.000000 0.400000
vt 0.125000 0.400000
vt 0.250000 0.400000
vt 0.375000 0.400000
vt 0.500000 0.400000
vt 0.625000 0.400000
vt 0.750000 0.400000
vt 0.875000 0.400000
vt 1.000000 0.400000
vt 0.000000 0.200000
vt 0.125000 0.200000
vt 0.250000 0.200000
vt 0.375000 0.200000
vt 0.500000 0.200000
vt 0.625000 0.200000
vt 0.750000 0.200000
vt 0.875000 0.200000
vt 1.000000 0.200000
vt 0.000000 0.000000
vt 0.125000 0.000000
vt 0.250000 0.000000
vt 0.375000 0.000000
vt 0.500000 0.000000
vt 0.625000 0.000000
vt 0.750000 0.000000
vt 0.875000 0.000000
vt 1.000000 0.000000
vn 0.689353 -0.688930 -0.223983
vn 0.586398 -0.688930 -0.426043
vn 0.748271 -0.380176 -0.543651
vn 0.879646 -0.380176 -0.285813
vn 0.426043 -0.688930 -0.586398
vn 0.543651 -0.380176 -0.748271
vn 0.223984 -0.688930 -0.689353
vn 0.285814 -0.380176 -0.879646
vn 0.000000 -0.688930 -0.724828
vn 0.000000 -0.380176 -0.924914
vn -0.223984 -0.688929 -0.689353
vn -0.285814 -0.380176 -0.879646
vn -0.426043 -0.688929 -0.586399
vn -0.543651 -0.380176 -0.748271
vn -0.586398 -0.688930 -0.426044
vn -0.748271 -0.380176 -0.543651
vn -0.689353 -0.688929 -0.223984
vn -0.879646 -0.380176 -0.285814
vn -0.724829 -0.688929 0.000000
vn -0.924914 -0.380176 0.000000
vn -0.689353 -0.688929 0.223984
vn -0.879646 -0.380176 0.285814
vn -0.586398 -0.688930 0.426043
vn -0.748271 -0.380176 0.543651
vn -0.426043 -0.688930 0.586398
vn -0.543651 -0.380176 0.748271
vn -0.223984 -0.688930 0.689353
vn -0.285814 -0.380176 0.879646
vn 0.000000 -0.688930 0.724828
vn 0.000000 -0.380176 0.924914
vn 0.223984 -0.688930 0.689353
vn 0.285814 -0.380176 0.879646
vn 0.426043 -0.688930 0.586398
vn 0.543651 -0.380176 0.748271
vn 0.586399 -0.688929 0.426043
vn 0.748271 -0.380176 0.543651
vn 0.689353 -0.688930 0.223984
vn 0.879646 -0.380176 0.285814
vn 0.724828 -0.688930 0.000000
vn 0.924914 -0.380176 0.000000
vn 0.000000 -1.000000 -0.000001
vn 0.000000 -1.000000 -0.000002
vn 0.000000 -1.000000 0.000000
vn 0.000000 -1.000000 0.000001
vn 0.000000 -1.000000 0.000000
vn 0.000000 -1.000000 0.000000
vn 0.000000 -1.000000 0.000000
vn 0.000000 -1.000000 0.000002
vn 0.000000 -1.000000 0.000002
vn 0.000000 -1.000000 0.000000
vn 0.000000 -1.000000 0.000000
vn 0.000000 -1.000000 0.000002
vn 0.000000 -1.000000 0.000001
vn 0.000000 -1.000000 -0.000001
vn 0.000000 -1.000000 0.000000
vn 0.000000 -1.000000 0.000000
vn 0.000000 -1.000000 0.000000
vn 0.000000 -1.000000 0.000000
vn 0.000000 -1.000000 0.000000
vn 0.000000 -1.000000 0.000000
vn 0.000000 -1.000000 0.000000
vn 0.000000 1.000000 0.000000
vn 0.000000 1.000000 0.000000
vn 0.000000 1.000000 0.000000
vn 0.000000 1.000000 0.000000
vn 0.000000 1.000000 0.000000
vn 0.000000 1.000000 0.000000
vn 0.000000 1.000000 0.000000
vn 0.000000 1.000000 0.000000
vn 0.000000 1.000000 0.000000
vn 0.000000 1.000000 0.000000
vn 0.000000 1.000000 0.000000
vn 0.000000 1.000000 0.000000
vn 0.000000 1.000000 0.000000
vn 0.000000 1.000000 0.000000
vn 0.000000 1.000000 0.000000
vn 0.000000 1.000000 0.000000
vn 0.000000 1.000000 0.000000
vn 0.000000 1.000000 0.000000
vn 0.000000 1.000000 0.000000
vn 0.000000 1.000000 0.000000
vn 0.000000 1.000000 0.000000
vn -0.929475 -0.211822 0.302005
vn -0.977308 -0.211823 0.000000
vn -0.929475 -0.211822 -0.302005
vn -0.790659 -0.211822 -0.574448
vn -0.574448 -0.211822 -0.790659
vn -0.302005 -0.211822 -0.929475
vn 0.000000 -0.211822 -0.977308
vn 0.302005 -0.211822 -0.929476
vn 0.574447 -0.211822 -0.790659
vn 0.790659 -0.211822 -0.574447
vn 0.929476 -0.211822 -0.302004
vn 0.977308 -0.211822 0.000000
vn 0.929475 -0.211822 0.302005
vn 0.790659 -0.211822 0.574448
vn 0.574448 -0.211822 0.790659
vn 0.302005 -0.211822 0.929475
vn 0.000000 -0.211822 0.977308
vn -0.302005 -0.211822 0.929475
vn -0.574448 -0.211822 0.790659
vn -0.790659 -0.211821 0.574448
vn -0.317738 -0.775765 0.545189
vn -0.317738 -0.775765 0.545189
vn -0.317738 -0.775765 0.545189
vn -0.317738 -0.775765 0.545189
vn 0.317738 -0.775764 0.545190
vn 0.317738 -0.775764 0.545190
vn 0.317738 -0.775764 0.545190
vn 0.317738 -0.775764 0.545190
vn 0.767092 -0.326474 0.552254
vn 0.767092 -0.326474 0.552254
vn 0.767092 -0.326474 0.552254
vn 0.767092 -0.326474 0.552254
vn 0.767092 0.308935 0.562254
vn 0.767092 0.308935 0.562254
vn 0.767092 0.308935 0.562254
vn 0.767092 0.308935 0.562254
vn 0.317741 0.758227 0.569326
vn 0.317741 0.758227 0.569326
vn 0.317741 0.758227 0.569326
vn 0.317741 0.758227 0.569326
vn -0.317741 0.758228 0.569325
vn -0.317741 0.758228 0.569325
vn -0.317741 0.758228 0.569325
vn -0.317741 0.758228 0.569325
vn -0.767093 0.308933 0.562253
vn -0.767093 0.308933 0.562253
vn -0.767093 0.308933 0.562253
vn -0.767093 0.308933 0.562253
vn -0.767092 -0.326475 0.552254
vn -0.767092 -0.326475 0.552254
vn -0.767092 -0.326475 0.552254
vn -0.767092 -0.326475 0.552254
vn 0.126963 0.291635 0.948066
vn 0.126963 0.291635 0.948066
vn 0.126963 0.291635 0.948066
vn 0.126963 0.291635 0.948066
vn -0.126964 0.291635 0.948066
vn -0.126964 0.291635 0.948066
vn -0.126964 0.291635 0.948066
vn -0.126964 0.291635 0.948066
vn -0.306518 0.112103 0.945240
vn -0.306518 0.112103 0.945240
vn -0.306518 0.112103 0.945241
vn -0.306518 0.112103 0.945240
vn -0.306516 -0.141792 0.941245
vn -0.306516 -0.141792 0.941245
vn -0.306516 -0.141792 0.941245
vn -0.306516 -0.141792 0.941245
vn -0.126962 -0.321322 0.938420
vn -0.126962 -0.321322 0.938420
vn -0.126962 -0.321322 0.938420
vn -0.126962 -0.321322 0.938420
vn 0.126962 -0.321322 0.938420
vn 0.126962 -0.321322 0.938420
vn 0.126962 -0.321322 0.938421
vn 0.126962 -0.321322 0.938421
vn 0.306516 -0.141793 0.941245
vn 0.306516 -0.141793 0.941245
vn 0.306516 -0.141793 0.941245
vn 0.306516 -0.141793 0.941245
vn 0.306519 0.112103 0.945240
vn 0.306519 0.112103 0.945240
vn 0.306519 0.112103 0.945240
vn 0.306519 0.112103 0.945240
vn 0.382683 0.923765 0.014543
vn 0.382683 0.923765 0.014543
vn 0.382683 0.923765 0.014543
vn 0.382683 0.923765 0.014543
vn -0.382683 0.923765 0.014543
vn -0.382683 0.923765 0.014543
vn -0.382683 0.923765 0.014543
vn -0.382683 0.923765 0.014543
vn -0.923880 0.382636 0.006021
vn -0.923880 0.382636 0.006021
vn -0.923880 0.382636 0.006021
vn -0.923880 0.382636 0.006021
vn -0.923880 -0.382636 -0.006021
vn -0.923880 -0.382636 -0.006021
vn -0.923880 -0.382636 -0.006021
vn -0.923880 -0.382636 -0.006021
vn -0.382684 -0.923765 -0.014540
vn -0.382684 -0.923765 -0.014540
vn -0.382684 -0.923765 -0.014540
vn -0.382684 -0.923765 -0.014540
vn 0.382683 -0.923765 -0.014540
vn 0.382683 -0.923765 -0.014540
vn 0.382683 -0.923765 -0.014540
vn 0.382683 -0.923765 -0.014540
vn 0.923879 -0.382637 -0.006021
vn 0.923879 -0.382637 -0.006021
vn 0.923879 -0.382637 -0.006021
vn 0.923879 -0.382637 -0.006021
vn 0.923879 0.382637 0.006021
vn 0.923879 0.382637 0.006021
vn 0.923879 0.382637 0.006021
vn 0.923879 0.382637 0.006021
vn 0.126962 0.321323 -0.938420
vn 0.126962 0.321323 -0.938420
vn 0.126962 0.321323 -0.938420
vn 0.126962 0.321323 -0.938420
vn -0.126962 0.321324 -0.938420
vn -0.126962 0.321324 -0.938420
vn -0.126962 0.321324 -0.938420
vn -0.126962 0.321324 -0.938420
vn -0.306516 0.141792 -0.941246
vn -0.306516 0.141792 -0.941246
vn -0.306516 0.141792 -0.941246
vn -0.306516 0.141792 -0.941246
vn -0.306519 -0.112104 -0.945240
vn -0.306519 -0.112104 -0.945240
vn -0.306519 -0.112104 -0.945240
vn -0.306519 -0.112104 -0.945240
vn -0.126963 -0.291633 -0.948067
vn -0.126963 -0.291633 -0.948067
vn -0.126963 -0.291633 -0.948067
vn -0.126963 -0.291633 -0.948067
vn 0.126964 -0.291634 -0.948066
vn 0.126964 -0.291634 -0.948066
vn 0.126964 -0.291634 -0.948066
vn 0.126964 -0.291634 -0.948066
vn 0.306519 -0.112103 -0.945240
vn 0.306519 -0.112103 -0.945240
vn 0.306519 -0.112103 -0.945240
vn 0.306519 -0.112103 -0.945240
vn 0.306516 0.141793 -0.941245
vn 0.306516 0.141793 -0.941245
vn 0.306516 0.141793 -0.941245
vn 0.306516 0.141793 -0.941245
vn -0.317739 -0.758225 -0.569331
vn -0.317739 -0.758224 -0.569331
vn -0.317739 -0.758224 -0.569331
vn -0.317739 -0.758224 -0.569331
vn 0.317739 -0.758225 -0.569330
vn 0.317739 -0.758225 -0.569330
vn 0.317739 -0.758225 -0.569330
vn 0.317739 -0.758225 -0.569330
vn 0.767092 -0.308935 -0.562254
vn 0.767092 -0.308935 -0.562254
vn 0.767092 -0.308935 -0.562254
vn 0.767092 -0.308935 -0.562254
vn 0.767091 0.326474 -0.552255
vn 0.767091 0.326474 -0.552255
vn 0.767091 0.326474 -0.552255
vn 0.767091 0.326474 -0.552255
vn 0.317741 0.775768 -0.545184
vn 0.317741 0.775768 -0.545184
vn 0.317741 0.775768 -0.545184
vn 0.317741 0.775768 -0.545184
vn -0.317741 0.775767 -0.545184
vn -0.317741 0.775767 -0.545184
vn -0.317741 0.775767 -0.545184
vn -0.317741 0.775767 -0.545184
vn -0.767090 0.326475 -0.552256
vn -0.767090 0.326475 -0.552256
vn -0.767090 0.326475 -0.552256
vn -0.767090 0.326475 -0.552256
vn -0.767092 -0.308933 -0.562255
vn -0.767092 -0.308933 -0.562255
vn -0.767092 -0.308933 -0.562255
vn -0.767092 -0.308933 -0.562255
s 1
g pCylinder4
usemtl initialShadingGroup
f 1/21/1 2/22/2 52/94/3 53/96/4
f 2/22/2 3/23/5 51/93/6 52/94/3
f 3/23/5 4/24/7 50/92/8 51/93/6
f 4/24/7 5/25/9 49/91/10 50/92/8
f 5/25/9 6/26/11 48/90/12 49/91/10
f 6/26/11 7/27/13 47/89/14 48/90/12
f 7/27/13 8/28/15 46/88/16 47/89/14
f 8/28/15 9/29/17 45/87/18 46/88/16
f 9/29/17 10/30/19 44/86/20 45/87/18
f 10/30/19 11/31/21 43/85/22 44/86/20
f 11/31/21 12/32/23 62/105/24 43/85/22
f 12/32/23 13/33/25 61/104/26 62/105/24
f 13/33/25 14/34/27 60/103/28 61/104/26
f 14/34/27 15/35/29 59/102/30 60/103/28
f 15/35/29 16/36/31 58/101/32 59/102/30
f 16/36/31 17/37/33 57/100/34 58/101/32
f 17/37/33 18/38/35 56/99/36 57/100/34
f 18/38/35 19/39/37 55/98/38 56/99/36
f 19/39/37 20/40/39 54/97/40 55/98/38
f 20/40/39 1/41/1 53/95/4 54/97/40
s 2
f 2/2/41 1/1/42 41/83/43
f 3/3/44 2/2/41 41/83/43
f 4/4/45 3/3/44 41/83/43
f 5/5/46 4/4/45 41/83/43
f 6/6/47 5/5/46 41/83/43
f 7/7/48 6/6/47 41/83/43
f 8/8/49 7/7/48 41/83/43
f 9/9/50 8/8/49 41/83/43
f 10/10/51 9/9/50 41/83/43
f 11/11/52 10/10/51 41/83/43
f 12/12/53 11/11/52 41/83/43
f 13/13/54 12/12/53 41/83/43
f 14/14/55 13/13/54 41/83/43
f 15/15/56 14/14/55 41/83/43
f 16/16/57 15/15/56 41/83/43
f 17/17/58 16/16/57 41/83/43
f 18/18/59 17/17/58 41/83/43
f 19/19/60 18/18/59 41/83/43
f 20/20/61 19/19/60 41/83/43
f 1/1/42 20/20/61 41/83/43
s 3
f 21/81/62 22/80/63 42/84/64
f 22/80/63 23/79/65 42/84/64
f 23/79/65 24/78/66 42/84/64
f 24/78/66 25/77/67 42/84/64
f 25/77/67 26/76/68 42/84/64
f 26/76/68 27/75/69 42/84/64
f 27/75/69 28/74/70 42/84/64
f 28/74/70 29/73/71 42/84/64
f 29/73/71 30/72/72 42/84/64
f 30/72/72 31/71/73 42/84/64
f 31/71/73 32/70/74 42/84/64
f 32/70/74 33/69/75 42/84/64
f 33/69/75 34/68/76 42/84/64
f 34/68/76 35/67/77 42/84/64
f 35/67/77 36/66/78 42/84/64
f 36/66/78 37/65/79 42/84/64
f 37/65/79 38/64/80 42/84/64
f 38/64/80 39/63/81 42/84/64
f 39/63/81 40/82/82 42/84/64
f 40/82/82 21/81/62 42/84/64
s 1
f 44/86/20 43/85/22 31/52/83 30/51/84
f 45/87/18 44/86/20 30/51/84 29/50/85
f 46/88/16 45/87/18 29/50/85 28/49/86
f 47/89/14 46/88/16 28/49/86 27/48/87
f 48/90/12 47/89/14 27/48/87 26/47/88
f 49/91/10 48/90/12 26/47/88 25/46/89
f 50/92/8 49/91/10 25/46/89 24/45/90
f 51/93/6 50/92/8 24/45/90 23/44/91
f 52/94/3 51/93/6 23/44/91 22/43/92
f 53/96/4 52/94/3 22/43/92 21/42/93
f 54/97/40 53/95/4 21/62/93 40/61/94
f 55/98/38 54/97/40 40/61/94 39/60/95
f 56/99/36 55/98/38 39/60/95 38/59/96
f 57/100/34 56/99/36 38/59/96 37/58/97
f 58/101/32 57/100/34 37/58/97 36/57/98
f 59/102/30 58/101/32 36/57/98 35/56/99
f 60/103/28 59/102/30 35/56/99 34/55/100
f 61/104/26 60/103/28 34/55/100 33/54/101
f 62/105/24 61/104/26 33/54/101 32/53/102
f 43/85/22 62/105/24 32/53/102 31/52/83
s off
f 64/106/103 63/107/104 71/108/105 72/109/106
f 65/110/107 64/106/108 72/109/109 73/111/110
f 66/112/111 65/110/112 73/111/113 74/113/114
f 67/114/115 66/112/116 74/113/117 75/115/118
f 68/116/119 67/114/120 75/115/121 76/117/122
f 69/118/123 68/116/124 76/117/125 77/119/126
f 70/120/127 69/118/128 77/119/129 78/121/130
f 63/122/131 70/120/132 78/121/133 71/123/134
f 72/109/135 71/108/136 79/124/137 80/125/138
f 73/111/139 72/109/140 80/125/141 81/126/142
f 74/113/143 73/111/144 81/126/145 82/127/146
f 75/115/147 74/113/148 82/127/149 83/128/150
f 76/117/151 75/115/152 83/128/153 84/129/154
f 77/119/155 76/117/156 84/129/157 85/130/158
f 78/121/159 77/119/160 85/130/161 86/131/162
f 71/123/163 78/121/164 86/131/165 79/132/166
f 80/125/167 79/124/168 87/133/169 88/134/170
f 81/126/171 80/125/172 88/134/173 89/135/174
f 82/127/175 81/126/176 89/135/177 90/136/178
f 83/128/179 82/127/180 90/136/181 91/137/182
f 84/129/183 83/128/184 91/137/185 92/138/186
f 85/130/187 84/129/188 92/138/189 93/139/190
f 86/131/191 85/130/192 93/139/193 94/140/194
f 79/132/195 86/131/196 94/140/197 87/141/198
f 88/134/199 87/133/200 95/142/201 96/143/202
f 89/135/203 88/134/204 96/143/205 97/144/206
f 90/136/207 89/135/208 97/144/209 98/145/210
f 91/137/211 90/136/212 98/145/213 99/146/214
f 92/138/215 91/137/216 99/146/217 100/147/218
f 93/139/219 92/138/220 100/147/221 101/148/222
f 94/140/223 93/139/224 101/148/225 102/149/226
f 87/141/227 94/140/228 102/149/229 95/150/230
f 96/143/231 95/142/232 63/151/233 64/152/234
f 97/144/235 96/143/236 64/152/237 65/153/238
f 98/145/239 97/144/240 65/153/241 66/154/242
f 99/146/243 98/145/244 66/154/245 67/155/246
f 100/147/247 99/146/248 67/155/249 68/156/250
f 101/148/251 100/147/252 68/156/253 69/157/254
f 102/149/255 101/148/256 69/157/257 70/158/258
f 95/150/259 102/149/260 70/158/261 63/159/262
