# This file uses centimeters as units for non-parametric coordinates.

mtllib tongue.mtl
g default
v 17.231660 7.078086 3.596272
v 17.241832 6.970211 3.317504
v 17.257662 6.802189 3.096272
v 17.277613 6.590470 2.954233
v 17.299730 6.355778 2.905289
v 17.321847 6.121086 2.954233
v 17.341802 5.909366 3.096272
v 17.357634 5.741345 3.317504
v 17.367806 5.633469 3.596272
v 17.371304 5.596297 3.905290
v 17.367806 5.633469 4.214307
v 17.357634 5.741345 4.493075
v 17.341802 5.909366 4.714307
v 17.321847 6.121086 4.856346
v 17.299730 6.355778 4.905290
v 17.277613 6.590470 4.856346
v 17.257662 6.802189 4.714307
v 17.241832 6.970210 4.493075
v 17.231660 7.078086 4.214307
v 17.228157 7.115258 3.905290
v 15.240577 7.196014 3.596272
v 15.250727 7.088284 3.317504
v 15.266540 6.920490 3.096272
v 15.286465 6.709060 2.954233
v 15.308554 6.474687 2.905289
v 15.330640 6.240315 2.954233
v 15.350565 6.028882 3.096272
v 15.366378 5.861090 3.317504
v 15.376532 5.753361 3.596272
v 15.380030 5.716239 3.905290
v 15.376532 5.753361 4.214307
v 15.366378 5.861090 4.493075
v 15.350565 6.028882 4.714307
v 15.330640 6.240315 4.856346
v 15.308554 6.474687 4.905290
v 15.286465 6.709060 4.856346
v 15.266540 6.920490 4.714307
v 15.250727 7.088283 4.493075
v 15.240578 7.196013 4.214307
v 15.237078 7.233133 3.905290
v 17.299730 6.355779 3.905290
v 14.356203 6.850056 3.596272
v 14.365799 6.748210 3.317504
v 14.380749 6.589582 3.096272
v 14.399585 6.389700 2.954233
v 14.420467 6.168129 2.905289
v 14.441347 5.946557 2.954233
v 14.460184 5.746673 3.096272
v 14.475133 5.588046 3.317504
v 14.484731 5.486201 3.596272
v 14.488041 5.451107 3.905290
v 14.484731 5.486201 4.214307
v 14.475133 5.588046 4.493075
v 14.460184 5.746673 4.714307
v 14.441347 5.946557 4.856346
v 14.420467 6.168129 4.905290
v 14.399585 6.389700 4.856346
v 14.380749 6.589582 4.714307
v 14.365799 6.748209 4.493075
v 14.356203 6.850056 4.214307
v 14.352896 6.885149 3.905290
v 13.063026 6.781493 3.596272
v 13.071657 6.689887 3.317504
v 13.085104 6.547208 3.096272
v 13.102046 6.367423 2.954233
v 13.120829 6.168129 2.905289
v 13.139610 5.968834 2.954233
v 13.156553 5.789048 3.096272
v 13.169999 5.646369 3.317504
v 13.178632 5.554764 3.596272
v 13.181607 5.523198 3.905290
v 13.178632 5.554764 4.214307
v 13.169999 5.646369 4.493075
v 13.156553 5.789048 4.714307
v 13.139610 5.968834 4.856346
v 13.120829 6.168129 4.905290
v 13.102046 6.367423 4.856346
v 13.085104 6.547208 4.714307
v 13.071657 6.689886 4.493075
v 13.063026 6.781493 4.214307
v 13.060052 6.813058 3.905290
v 11.485231 4.933385 3.667268
v 11.558050 4.894576 3.452545
v 11.972816 4.673545 3.905290
v 11.671471 4.834133 3.282141
v 11.814389 4.757971 3.172734
v 11.972816 4.673545 3.135035
v 12.131241 4.589116 3.172734
v 12.274160 4.512953 3.282141
v 12.387580 4.452510 3.452545
v 12.460401 4.413703 3.667268
v 12.485494 4.400331 3.905290
v 12.460401 4.413703 4.143311
v 12.387580 4.452510 4.358034
v 12.274160 4.512953 4.528438
v 12.131241 4.589116 4.637845
v 11.972816 4.673545 4.675544
v 11.814389 4.757971 4.637845
v 11.671471 4.834133 4.528438
v 11.558051 4.894576 4.358034
v 11.485231 4.933385 4.143311
v 11.460140 4.946756 3.905290
vt 0.648603 0.107966
vt 0.626409 0.064408
vt 0.591842 0.029841
vt 0.548284 0.007647
vt 0.500000 -0.000000
vt 0.451716 0.007647
vt 0.408159 0.029841
vt 0.373591 0.064409
vt 0.351397 0.107966
vt 0.343750 0.156250
vt 0.351397 0.204534
vt 0.373591 0.248091
vt 0.408159 0.282659
vt 0.451716 0.304853
vt 0.500000 0.312500
vt 0.548284 0.304853
vt 0.591841 0.282659
vt 0.626409 0.248091
vt 0.648603 0.204534
vt 0.656250 0.156250
vt 0.375000 0.312500
vt 0.387500 0.312500
vt 0.400000 0.312500
vt 0.412500 0.312500
vt 0.425000 0.312500
vt 0.437500 0.312500
vt 0.450000 0.312500
vt 0.462500 0.312500
vt 0.475000 0.312500
vt 0.487500 0.312500
vt 0.500000 0.312500
vt 0.512500 0.312500
vt 0.525000 0.312500
vt 0.537500 0.312500
vt 0.550000 0.312500
vt 0.562500 0.312500
vt 0.575000 0.312500
vt 0.587500 0.312500
vt 0.600000 0.312500
vt 0.612500 0.312500
vt 0.625000 0.312500
vt 0.375000 0.688440
vt 0.387500 0.688440
vt 0.400000 0.688440
vt 0.412500 0.688440
vt 0.425000 0.688440
vt 0.437500 0.688440
vt 0.450000 0.688440
vt 0.462500 0.688440
vt 0.475000 0.688440
vt 0.487500 0.688440
vt 0.500000 0.688440
vt 0.512500 0.688440
vt 0.525000 0.688440
vt 0.537500 0.688440
vt 0.550000 0.688440
vt 0.562500 0.688440
vt 0.575000 0.688440
vt 0.587500 0.688440
vt 0.600000 0.688440
vt 0.612500 0.688440
vt 0.625000 0.688440
vt 0.648603 0.795466
vt 0.626409 0.751908
vt 0.591842 0.717341
vt 0.548284 0.695147
vt 0.500000 0.687500
vt 0.451716 0.695147
vt 0.408159 0.717341
vt 0.373591 0.751909
vt 0.351397 0.795466
vt 0.343750 0.843750
vt 0.351397 0.892034
vt 0.373591 0.935591
vt 0.408159 0.970159
vt 0.451716 0.992353
vt 0.500000 1.000000
vt 0.548284 0.992353
vt 0.591841 0.970159
vt 0.626409 0.935591
vt 0.648603 0.892034
vt 0.656250 0.843750
vt 0.500000 0.150000
vt 0.500000 0.837500
vt 0.648603 0.892034
vt 0.626409 0.935591
vt 0.591841 0.970159
vt 0.548284 0.992353
vt 0.500000 1.000000
vt 0.451716 0.992353
vt 0.408159 0.970159
vt 0.373591 0.935591
vt 0.351397 0.892034
vt 0.343750 0.843750
vt 0.351397 0.795466
vt 0.373591 0.751909
vt 0.408159 0.717341
vt 0.451716 0.695147
vt 0.500000 0.687500
vt 0.548284 0.695147
vt 0.591842 0.717341
vt 0.626409 0.751908
vt 0.648603 0.795466
vt 0.656250 0.843750
vt 0.648603 0.892034
vt 0.626409 0.935591
vt 0.591841 0.970159
vt 0.548284 0.992353
vt 0.500000 1.000000
vt 0.451716 0.992353
vt 0.408159 0.970159
vt 0.373591 0.935591
vt 0.351397 0.892034
vt 0.343750 0.843750
vt 0.351397 0.795466
vt 0.373591 0.751909
vt 0.408159 0.717341
vt 0.451716 0.695147
vt 0.500000 0.687500
vt 0.548284 0.695147
vt 0.591842 0.717341
vt 0.626409 0.751908
vt 0.648603 0.795466
vt 0.656250 0.843750
vt 0.648603 0.892034
vt 0.626409 0.935591
vt 0.591841 0.970159
vt 0.548284 0.992353
vt 0.500000 1.000000
vt 0.451716 0.992353
vt 0.408159 0.970159
vt 0.373591 0.935591
vt 0.351397 0.892034
vt 0.343750 0.843750
vt 0.351397 0.795466
vt 0.373591 0.751909
vt 0.408159 0.717341
vt 0.451716 0.695147
vt 0.500000 0.687500
vt 0.548284 0.695147
vt 0.591842 0.717341
vt 0.626409 0.751908
vt 0.648603 0.795466
vt 0.656250 0.843750
vn 0.057398 0.968932 -0.240574
vn 0.051745 0.872493 -0.485880
vn 0.052117 0.878824 -0.474290
vn 0.057479 0.970315 -0.234913
vn 0.040673 0.684587 -0.727795
vn 0.041662 0.701334 -0.711614
vn 0.022590 0.379461 -0.924932
vn 0.024475 0.411206 -0.911214
vn -0.001216 -0.020089 -0.999797
vn 0.001183 0.020084 -0.999798
vn -0.024640 -0.411253 -0.911188
vn -0.022731 -0.379442 -0.924936
vn -0.042106 -0.701381 -0.711542
vn -0.041090 -0.684568 -0.727790
vn -0.052846 -0.878828 -0.474204
vn -0.052460 -0.872463 -0.485856
vn -0.058409 -0.970273 -0.234860
vn -0.058324 -0.968882 -0.240556
vn -0.060112 -0.998192 0.000000
vn -0.060112 -0.998192 0.000000
vn -0.058409 -0.970273 0.234860
vn -0.058324 -0.968881 0.240556
vn -0.052846 -0.878828 0.474204
vn -0.052460 -0.872463 0.485856
vn -0.042105 -0.701380 0.711542
vn -0.041090 -0.684567 0.727791
vn -0.024640 -0.411252 0.911189
vn -0.022731 -0.379441 0.924937
vn -0.001216 -0.020089 0.999797
vn 0.001183 0.020084 0.999798
vn 0.022590 0.379461 0.924932
vn 0.024475 0.411206 0.911214
vn 0.040673 0.684587 0.727795
vn 0.041662 0.701335 0.711614
vn 0.051745 0.872493 0.485879
vn 0.052117 0.878825 0.474290
vn 0.057398 0.968932 0.240575
vn 0.057479 0.970315 0.234914
vn 0.059111 0.998251 0.000001
vn 0.059111 0.998251 0.000001
vn 0.995589 0.093819 0.000004
vn 0.995588 0.093829 0.000010
vn 0.995589 0.093825 -0.000000
vn 0.995590 0.093814 -0.000004
vn 0.995589 0.093821 -0.000001
vn 0.995589 0.093824 -0.000000
vn 0.995588 0.093828 -0.000001
vn 0.995589 0.093827 0.000001
vn 0.995588 0.093827 -0.000003
vn 0.995588 0.093832 -0.000000
vn 0.995589 0.093824 0.000000
vn 0.995588 0.093832 0.000000
vn 0.995588 0.093827 0.000003
vn 0.995589 0.093827 -0.000001
vn 0.995588 0.093828 0.000001
vn 0.995589 0.093824 -0.000000
vn 0.995589 0.093821 0.000001
vn 0.995590 0.093814 0.000004
vn 0.995589 0.093819 -0.000004
vn 0.995588 0.093829 -0.000010
vn 0.995589 0.093824 0.000000
vn -0.470300 -0.882506 0.000005
vn -0.470298 -0.882508 0.000005
vn -0.470299 -0.882507 0.000000
vn -0.470295 -0.882509 0.000001
vn -0.470293 -0.882510 0.000000
vn -0.470298 -0.882508 0.000000
vn -0.470302 -0.882505 0.000001
vn -0.470300 -0.882506 0.000002
vn -0.470302 -0.882506 0.000002
vn -0.470301 -0.882506 0.000002
vn -0.470301 -0.882506 0.000000
vn -0.470301 -0.882506 -0.000001
vn -0.470301 -0.882506 -0.000001
vn -0.470301 -0.882506 -0.000002
vn -0.470303 -0.882505 -0.000001
vn -0.470298 -0.882508 -0.000000
vn -0.470293 -0.882510 -0.000001
vn -0.470296 -0.882509 -0.000002
vn -0.470299 -0.882507 -0.000005
vn -0.470300 -0.882506 -0.000004
vn -0.470299 -0.882507 0.000000
vn -0.339790 0.876333 -0.341444
vn -0.339790 0.876333 -0.341444
vn -0.339790 0.876333 -0.341444
vn -0.339790 0.876333 -0.341444
vn -0.288312 0.760856 -0.581356
vn -0.288312 0.760856 -0.581356
vn -0.288312 0.760856 -0.581356
vn -0.288312 0.760856 -0.581356
vn -0.199577 0.544060 -0.814965
vn -0.199577 0.544060 -0.814965
vn -0.199577 0.544060 -0.814965
vn -0.199577 0.544060 -0.814965
vn -0.071556 0.202918 -0.976578
vn -0.071556 0.202918 -0.976578
vn -0.071556 0.202918 -0.976578
vn -0.071556 0.202918 -0.976578
vn 0.068640 -0.203225 -0.976723
vn 0.068640 -0.203225 -0.976723
vn 0.068640 -0.203225 -0.976723
vn 0.068640 -0.203225 -0.976723
vn 0.177326 -0.547918 -0.817521
vn 0.177326 -0.547918 -0.817521
vn 0.177326 -0.547918 -0.817521
vn 0.177326 -0.547918 -0.817521
vn 0.240891 -0.772940 -0.586971
vn 0.240891 -0.772940 -0.586971
vn 0.240891 -0.772940 -0.586971
vn 0.240891 -0.772940 -0.586971
vn 0.271933 -0.897567 -0.347024
vn 0.271933 -0.897567 -0.347024
vn 0.271933 -0.897567 -0.347024
vn 0.271933 -0.897567 -0.347024
vn 0.284070 -0.951959 -0.114361
vn 0.284070 -0.951959 -0.114361
vn 0.284070 -0.951959 -0.114361
vn 0.284070 -0.951959 -0.114361
vn 0.284070 -0.951959 0.114361
vn 0.284070 -0.951959 0.114361
vn 0.284070 -0.951959 0.114361
vn 0.284070 -0.951959 0.114361
vn 0.271933 -0.897567 0.347024
vn 0.271933 -0.897567 0.347024
vn 0.271933 -0.897567 0.347024
vn 0.271933 -0.897567 0.347024
vn 0.240891 -0.772940 0.586971
vn 0.240891 -0.772940 0.586971
vn 0.240891 -0.772940 0.586971
vn 0.240891 -0.772940 0.586971
vn 0.177326 -0.547917 0.817522
vn 0.177326 -0.547917 0.817522
vn 0.177326 -0.547917 0.817522
vn 0.177326 -0.547917 0.817522
vn 0.068640 -0.203225 0.976723
vn 0.068640 -0.203225 0.976723
vn 0.068640 -0.203225 0.976723
vn 0.068640 -0.203225 0.976723
vn -0.071556 0.202918 0.976578
vn -0.071556 0.202918 0.976578
vn -0.071556 0.202918 0.976578
vn -0.071556 0.202918 0.976578
vn -0.199577 0.544060 0.814965
vn -0.199577 0.544060 0.814965
vn -0.199577 0.544060 0.814965
vn -0.199577 0.544060 0.814965
vn -0.288313 0.760857 0.581354
vn -0.288313 0.760857 0.581354
vn -0.288313 0.760857 0.581354
vn -0.288313 0.760857 0.581354
vn -0.339790 0.876333 0.341443
vn -0.339790 0.876333 0.341443
vn -0.339790 0.876333 0.341443
vn -0.339790 0.876333 0.341443
vn -0.362964 0.925038 0.112083
vn -0.362964 0.925038 0.112083
vn -0.362964 0.925038 0.112083
vn -0.362964 0.925038 0.112083
vn -0.362965 0.925038 -0.112080
vn -0.362965 0.925038 -0.112080
vn -0.362965 0.925038 -0.112080
vn -0.362965 0.925038 -0.112080
vn -0.046259 0.943265 -0.328803
vn -0.046259 0.943265 -0.328803
vn -0.046259 0.943265 -0.328803
vn -0.046259 0.943265 -0.328803
vn -0.032084 0.825167 -0.563977
vn -0.032084 0.825167 -0.563977
vn -0.032084 0.825167 -0.563977
vn -0.032084 0.825167 -0.563977
vn -0.014912 0.598126 -0.801264
vn -0.014912 0.598126 -0.801264
vn -0.014912 0.598126 -0.801264
vn -0.014912 0.598126 -0.801264
vn -0.001942 0.226364 -0.974041
vn -0.001942 0.226364 -0.974041
vn -0.001942 0.226364 -0.974041
vn -0.001942 0.226364 -0.974041
vn -0.001941 -0.226711 -0.973960
vn -0.001941 -0.226711 -0.973960
vn -0.001941 -0.226711 -0.973960
vn -0.001941 -0.226711 -0.973960
vn -0.014887 -0.599924 -0.799919
vn -0.014887 -0.599924 -0.799919
vn -0.014887 -0.599924 -0.799919
vn -0.014887 -0.599924 -0.799919
vn -0.031925 -0.827083 -0.561173
vn -0.031925 -0.827082 -0.561173
vn -0.031925 -0.827082 -0.561173
vn -0.031925 -0.827082 -0.561173
vn -0.045882 -0.944215 -0.326118
vn -0.045882 -0.944215 -0.326118
vn -0.045882 -0.944215 -0.326118
vn -0.045882 -0.944215 -0.326118
vn -0.053454 -0.992870 -0.106544
vn -0.053454 -0.992870 -0.106544
vn -0.053454 -0.992870 -0.106544
vn -0.053454 -0.992870 -0.106544
vn -0.053454 -0.992870 0.106544
vn -0.053454 -0.992870 0.106544
vn -0.053454 -0.992870 0.106544
vn -0.053454 -0.992870 0.106544
vn -0.045882 -0.944215 0.326118
vn -0.045882 -0.944215 0.326118
vn -0.045882 -0.944215 0.326118
vn -0.045882 -0.944215 0.326118
vn -0.031925 -0.827083 0.561173
vn -0.031925 -0.827083 0.561173
vn -0.031925 -0.827083 0.561173
vn -0.031925 -0.827083 0.561173
vn -0.014887 -0.599923 0.799920
vn -0.014887 -0.599923 0.799920
vn -0.014887 -0.599923 0.799920
vn -0.014887 -0.599923 0.799920
vn -0.001941 -0.226711 0.973960
vn -0.001941 -0.226711 0.973960
vn -0.001941 -0.226711 0.973960
vn -0.001941 -0.226711 0.973960
vn -0.001942 0.226364 0.974041
vn -0.001942 0.226364 0.974041
vn -0.001942 0.226364 0.974041
vn -0.001942 0.226364 0.974041
vn -0.014912 0.598125 0.801264
vn -0.014912 0.598125 0.801264
vn -0.014912 0.598125 0.801264
vn -0.014912 0.598125 0.801264
vn -0.032084 0.825168 0.563975
vn -0.032084 0.825168 0.563975
vn -0.032084 0.825168 0.563975
vn -0.032084 0.825168 0.563975
vn -0.046259 0.943265 0.328804
vn -0.046259 0.943265 0.328804
vn -0.046259 0.943265 0.328804
vn -0.046259 0.943265 0.328804
vn -0.053995 0.992725 0.107619
vn -0.053995 0.992725 0.107619
vn -0.053995 0.992725 0.107619
vn -0.053995 0.992725 0.107619
vn -0.053994 0.992725 -0.107618
vn -0.053994 0.992725 -0.107618
vn -0.053994 0.992725 -0.107618
vn -0.053994 0.992725 -0.107618
vn -0.739079 0.611070 -0.283470
vn -0.739079 0.611070 -0.283470
vn -0.739079 0.611070 -0.283470
vn -0.739079 0.611070 -0.283470
vn -0.688081 0.528636 -0.497079
vn -0.688081 0.528636 -0.497079
vn -0.688081 0.528637 -0.497079
vn -0.688081 0.528636 -0.497079
vn -0.565800 0.370348 -0.736691
vn -0.565799 0.370348 -0.736691
vn -0.565799 0.370348 -0.736691
vn -0.565800 0.370348 -0.736691
vn -0.302513 0.100501 -0.947832
vn -0.302513 0.100501 -0.947832
vn -0.302513 0.100501 -0.947832
vn -0.302513 0.100501 -0.947832
vn 0.105162 -0.229784 -0.967543
vn 0.105162 -0.229784 -0.967543
vn 0.105162 -0.229784 -0.967543
vn 0.105162 -0.229784 -0.967543
vn 0.470986 -0.450765 -0.758277
vn 0.470986 -0.450764 -0.758277
vn 0.470986 -0.450765 -0.758277
vn 0.470986 -0.450764 -0.758277
vn 0.688240 -0.528469 -0.497038
vn 0.688240 -0.528469 -0.497038
vn 0.688240 -0.528469 -0.497038
vn 0.688240 -0.528469 -0.497038
vn 0.797973 -0.537001 -0.273622
vn 0.797973 -0.537001 -0.273622
vn 0.797973 -0.537001 -0.273622
vn 0.797973 -0.537001 -0.273622
vn 0.843674 -0.529791 -0.086808
vn 0.843674 -0.529791 -0.086808
vn 0.843674 -0.529791 -0.086808
vn 0.843674 -0.529791 -0.086808
vn 0.843674 -0.529791 0.086808
vn 0.843674 -0.529791 0.086808
vn 0.843674 -0.529791 0.086808
vn 0.843674 -0.529791 0.086808
vn 0.797973 -0.537001 0.273622
vn 0.797973 -0.537001 0.273622
vn 0.797973 -0.537001 0.273622
vn 0.797973 -0.537001 0.273622
vn 0.688240 -0.528469 0.497038
vn 0.688240 -0.528469 0.497038
vn 0.688240 -0.528469 0.497038
vn 0.688240 -0.528469 0.497038
vn 0.470985 -0.450764 0.758278
vn 0.470985 -0.450764 0.758278
vn 0.470985 -0.450764 0.758278
vn 0.470985 -0.450764 0.758278
vn 0.105162 -0.229784 0.967543
vn 0.105162 -0.229784 0.967543
vn 0.105162 -0.229784 0.967543
vn 0.105162 -0.229784 0.967543
vn -0.302513 0.100501 0.947832
vn -0.302513 0.100501 0.947832
vn -0.302513 0.100501 0.947832
vn -0.302513 0.100501 0.947832
vn -0.565799 0.370348 0.736691
vn -0.565799 0.370348 0.736691
vn -0.565799 0.370348 0.736691
vn -0.565799 0.370348 0.736691
vn -0.688083 0.528638 0.497076
vn -0.688083 0.528638 0.497076
vn -0.688083 0.528638 0.497076
vn -0.688083 0.528638 0.497076
vn -0.739079 0.611070 0.283473
vn -0.739079 0.611070 0.283473
vn -0.739079 0.611070 0.283473
vn -0.739079 0.611070 0.283473
vn -0.757518 0.646305 0.091955
vn -0.757518 0.646305 0.091955
vn -0.757518 0.646305 0.091955
vn -0.757518 0.646305 0.091955
vn -0.757518 0.646305 -0.091955
vn -0.757518 0.646305 -0.091955
vn -0.757518 0.646305 -0.091955
vn -0.757518 0.646305 -0.091955
s 1
g pCylinder12
usemtl initialShadingGroup
f 1/21/1 2/22/2 22/43/3 21/42/4
f 2/22/2 3/23/5 23/44/6 22/43/3
f 3/23/5 4/24/7 24/45/8 23/44/6
f 4/24/7 5/25/9 25/46/10 24/45/8
f 5/25/9 6/26/11 26/47/12 25/46/10
f 6/26/11 7/27/13 27/48/14 26/47/12
f 7/27/13 8/28/15 28/49/16 27/48/14
f 8/28/15 9/29/17 29/50/18 28/49/16
f 9/29/17 10/30/19 30/51/20 29/50/18
f 10/30/19 11/31/21 31/52/22 30/51/20
f 11/31/21 12/32/23 32/53/24 31/52/22
f 12/32/23 13/33/25 33/54/26 32/53/24
f 13/33/25 14/34/27 34/55/28 33/54/26
f 14/34/27 15/35/29 35/56/30 34/55/28
f 15/35/29 16/36/31 36/57/32 35/56/30
f 16/36/31 17/37/33 37/58/34 36/57/32
f 17/37/33 18/38/35 38/59/36 37/58/34
f 18/38/35 19/39/37 39/60/38 38/59/36
f 19/39/37 20/40/39 40/61/40 39/60/38
f 20/40/39 1/41/1 21/62/4 40/61/40
s 2
f 2/2/41 1/1/42 41/83/43
f 3/3/44 2/2/41 41/83/43
f 4/4/45 3/3/44 41/83/43
f 5/5/46 4/4/45 41/83/43
f 6/6/47 5/5/46 41/83/43
f 7/7/48 6/6/47 41/83/43
f 8/8/49 7/7/48 41/83/43
f 9/9/50 8/8/49 41/83/43
f 10/10/51 9/9/50 41/83/43
f 11/11/52 10/10/51 41/83/43
f 12/12/53 11/11/52 41/83/43
f 13/13/54 12/12/53 41/83/43
f 14/14/55 13/13/54 41/83/43
f 15/15/56 14/14/55 41/83/43
f 16/16/57 15/15/56 41/83/43
f 17/17/58 16/16/57 41/83/43
f 18/18/59 17/17/58 41/83/43
f 19/19/60 18/18/59 41/83/43
f 20/20/61 19/19/60 41/83/43
f 1/1/42 20/20/61 41/83/43
s 3
f 82/125/62 83/126/63 84/84/64
f 83/126/63 85/127/65 84/84/64
f 85/127/65 86/128/66 84/84/64
f 86/128/66 87/129/67 84/84/64
f 87/129/67 88/130/68 84/84/64
f 88/130/68 89/131/69 84/84/64
f 89/131/69 90/132/70 84/84/64
f 90/132/70 91/133/71 84/84/64
f 91/133/71 92/134/72 84/84/64
f 92/134/72 93/135/73 84/84/64
f 93/135/73 94/136/74 84/84/64
f 94/136/74 95/137/75 84/84/64
f 95/137/75 96/138/76 84/84/64
f 96/138/76 97/139/77 84/84/64
f 97/139/77 98/140/78 84/84/64
f 98/140/78 99/141/79 84/84/64
f 99/141/79 100/142/80 84/84/64
f 100/142/80 101/143/81 84/84/64
f 101/143/81 102/144/82 84/84/64
f 102/144/82 82/125/62 84/84/64
s off
f 21/81/83 22/80/84 43/86/85 42/85/86
f 22/80/87 23/79/88 44/87/89 43/86/90
f 23/79/91 24/78/92 45/88/93 44/87/94
f 24/78/95 25/77/96 46/89/97 45/88/98
f 25/77/99 26/76/100 47/90/101 46/89/102
f 26/76/103 27/75/104 48/91/105 47/90/106
f 27/75/107 28/74/108 49/92/109 48/91/110
f 28/74/111 29/73/112 50/93/113 49/92/114
f 29/73/115 30/72/116 51/94/117 50/93/118
f 30/72/119 31/71/120 52/95/121 51/94/122
f 31/71/123 32/70/124 53/96/125 52/95/126
f 32/70/127 33/69/128 54/97/129 53/96/130
f 33/69/131 34/68/132 55/98/133 54/97/134
f 34/68/135 35/67/136 56/99/137 55/98/138
f 35/67/139 36/66/140 57/100/141 56/99/142
f 36/66/143 37/65/144 58/101/145 57/100/146
f 37/65/147 38/64/148 59/102/149 58/101/150
f 38/64/151 39/63/152 60/103/153 59/102/154
f 39/63/155 40/82/156 61/104/157 60/103/158
f 40/82/159 21/81/160 42/85/161 61/104/162
f 42/85/163 43/86/164 63/106/165 62/105/166
f 43/86/167 44/87/168 64/107/169 63/106/170
f 44/87/171 45/88/172 65/108/173 64/107/174
f 45/88/175 46/89/176 66/109/177 65/108/178
f 46/89/179 47/90/180 67/110/181 66/109/182
f 47/90/183 48/91/184 68/111/185 67/110/186
f 48/91/187 49/92/188 69/112/189 68/111/190
f 49/92/191 50/93/192 70/113/193 69/112/194
f 50/93/195 51/94/196 71/114/197 70/113/198
f 51/94/199 52/95/200 72/115/201 71/114/202
f 52/95/203 53/96/204 73/116/205 72/115/206
f 53/96/207 54/97/208 74/117/209 73/116/210
f 54/97/211 55/98/212 75/118/213 74/117/214
f 55/98/215 56/99/216 76/119/217 75/118/218
f 56/99/219 57/100/220 77/120/221 76/119/222
f 57/100/223 58/101/224 78/121/225 77/120/226
f 58/101/227 59/102/228 79/122/229 78/121/230
f 59/102/231 60/103/232 80/123/233 79/122/234
f 60/103/235 61/104/236 81/124/237 80/123/238
f 61/104/239 42/85/240 62/105/241 81/124/242
f 62/105/243 63/106/244 83/126/245 82/125/246
f 63/106/247 64/107/248 85/127/249 83/126/250
f 64/107/251 65/108/252 86/128/253 85/127/254
f 65/108/255 66/109/256 87/129/257 86/128/258
f 66/109/259 67/110/260 88/130/261 87/129/262
f 67/110/263 68/111/264 89/131/265 88/130/266
f 68/111/267 69/112/268 90/132/269 89/131/270
f 69/112/271 70/113/272 91/133/273 90/132/274
f 70/113/275 71/114/276 92/134/277 91/133/278
f 71/114/279 72/115/280 93/135/281 92/134/282
f 72/115/283 73/116/284 94/136/285 93/135/286
f 73/116/287 74/117/288 95/137/289 94/136/290
f 74/117/291 75/118/292 96/138/293 95/137/294
f 75/118/295 76/119/296 97/139/297 96/138/298
f 76/119/299 77/120/300 98/140/301 97/139/302
f 77/120/303 78/121/304 99/141/305 98/140/306
f 78/121/307 79/122/308 100/142/309 99/141/310
f 79/122/311 80/123/312 101/143/313 100/142/314
f 80/123/315 81/124/316 102/144/317 101/143/318
f 81/124/319 62/105/320 82/125/321 102/144/322
