# This file uses centimeters as units for non-parametric coordinates.

mtllib torn cloth.mtl
g default
v 12.609732 11.589397 0.834525
v 16.190164 11.298453 0.834525
v 12.609732 12.589397 0.834525
v 16.190164 12.298453 0.834525
v 12.609732 12.589397 0.500892
v 16.190164 12.298453 0.500892
v 12.609732 11.589397 0.500892
v 16.190164 11.298453 0.500892
v 12.757434 12.334881 0.834525
v 12.757434 12.334881 0.500892
v 12.757434 10.865228 0.500892
v 12.757434 10.865228 0.834525
v 13.019078 12.081269 0.834525
v 13.019078 12.081269 0.500892
v 13.019078 11.081269 0.500892
v 13.019078 11.081269 0.834525
v 13.279668 11.918768 0.834525
v 13.279668 11.918768 0.500892
v 13.279668 9.865682 0.500892
v 13.279668 9.865682 0.834525
v 13.657886 11.700016 0.834525
v 13.657886 11.700016 0.500892
v 13.657886 9.323821 0.500892
v 13.657886 9.323821 0.834525
v 14.030889 11.601400 0.834525
v 14.030889 11.601400 0.500892
v 14.030889 10.743388 0.500892
v 14.030889 10.743388 0.834525
v 14.443895 11.587486 0.834525
v 14.443895 11.587486 0.500892
v 14.443895 9.844778 0.500892
v 14.443895 9.844778 0.834525
v 14.777367 11.573963 0.834525
v 14.777367 11.573963 0.500892
v 14.777367 10.213531 0.500892
v 14.777367 10.213531 0.834525
v 15.147820 11.592942 0.834525
v 15.147820 11.592942 0.500892
v 15.147820 10.592942 0.500892
v 15.147820 10.592942 0.834525
v 15.555454 11.774870 0.834525
v 15.555454 11.774870 0.500892
v 15.555454 9.959539 0.500892
v 15.555454 9.959539 0.834525
v 15.860939 12.047347 0.834525
v 15.860939 12.047347 0.500892
v 15.860939 11.047347 0.500892
v 15.860939 11.047347 0.834525
vt 0.375000 0.000000
vt 0.625000 0.000000
vt 0.375000 0.250000
vt 0.625000 0.250000
vt 0.375000 0.500000
vt 0.625000 0.500000
vt 0.375000 0.750000
vt 0.625000 0.750000
vt 0.375000 1.000000
vt 0.625000 1.000000
vt 0.875000 0.000000
vt 0.875000 0.250000
vt 0.125000 0.000000
vt 0.125000 0.250000
vt 0.385313 0.250000
vt 0.385313 0.500000
vt 0.385313 0.750000
vt 0.385313 0.000000
vt 0.385313 1.000000
vt 0.403582 0.250000
vt 0.403582 0.500000
vt 0.403582 0.750000
vt 0.403582 0.000000
vt 0.403582 1.000000
vt 0.421778 0.250000
vt 0.421778 0.500000
vt 0.421778 0.750000
vt 0.421778 0.000000
vt 0.421778 1.000000
vt 0.448186 0.250000
vt 0.448186 0.500000
vt 0.448186 0.750000
vt 0.448186 0.000000
vt 0.448186 1.000000
vt 0.474231 0.250000
vt 0.474231 0.500000
vt 0.474231 0.750000
vt 0.474231 0.000000
vt 0.474231 1.000000
vt 0.503069 0.250000
vt 0.503069 0.500000
vt 0.503069 0.750000
vt 0.503069 0.000000
vt 0.503069 1.000000
vt 0.526353 0.250000
vt 0.526353 0.500000
vt 0.526353 0.750000
vt 0.526353 0.000000
vt 0.526353 1.000000
vt 0.552219 0.250000
vt 0.552219 0.500000
vt 0.552219 0.750000
vt 0.552219 0.000000
vt 0.552219 1.000000
vt 0.580682 0.250000
vt 0.580682 0.500000
vt 0.580682 0.750000
vt 0.580682 0.000000
vt 0.580682 1.000000
vt 0.602012 0.250000
vt 0.602012 0.500000
vt 0.602012 0.750000
vt 0.602012 0.000000
vt 0.602012 1.000000
vn 0.000000 0.000000 1.000000
vn -0.000000 0.000000 1.000000
vn 0.000000 0.000000 1.000000
vn 0.000000 0.000000 1.000000
vn 0.864910 0.501928 0.000000
vn 0.778738 0.627349 0.000000
vn 0.778738 0.627349 0.000000
vn 0.864910 0.501928 0.000000
vn 0.000000 0.000000 -1.000000
vn 0.000000 0.000000 -1.000000
vn -0.000000 0.000000 -1.000000
vn 0.000000 0.000000 -1.000000
vn -0.979827 -0.199845 0.000000
vn -0.778738 -0.627349 0.000000
vn -0.778738 -0.627349 0.000000
vn -0.979827 -0.199845 0.000000
vn 1.000000 0.000000 0.000000
vn 1.000000 0.000000 0.000000
vn 1.000000 0.000000 0.000000
vn 1.000000 0.000000 0.000000
vn -1.000000 0.000000 0.000000
vn -1.000000 0.000000 0.000000
vn -1.000000 0.000000 0.000000
vn -1.000000 0.000000 0.000000
vn 0.623165 0.782090 0.000000
vn 0.623165 0.782090 0.000000
vn -0.000000 0.000000 -1.000000
vn -0.000000 0.000000 -1.000000
vn -0.886318 -0.463076 0.000000
vn -0.886318 -0.463076 0.000000
vn 0.000000 0.000000 1.000000
vn -0.000000 0.000000 1.000000
vn 0.512486 0.858696 0.000000
vn 0.512486 0.858696 0.000000
vn -0.000000 0.000000 -1.000000
vn -0.000000 0.000000 -1.000000
vn -0.939839 -0.341619 0.000000
vn -0.939839 -0.341619 0.000000
vn -0.000000 0.000000 1.000000
vn 0.000000 0.000000 1.000000
vn 0.389166 0.921168 0.000000
vn 0.389166 0.921168 0.000000
vn -0.000000 0.000000 -1.000000
vn -0.000000 0.000000 -1.000000
vn 0.759726 -0.650243 0.000000
vn 0.759726 -0.650243 0.000000
vn -0.000000 0.000000 1.000000
vn -0.000000 0.000000 1.000000
vn 0.141722 0.989906 0.000000
vn 0.141722 0.989906 0.000000
vn 0.000000 0.000000 -1.000000
vn 0.000000 0.000000 -1.000000
vn 0.552459 -0.833540 0.000000
vn 0.552459 -0.833540 0.000000
vn 0.000000 0.000000 1.000000
vn 0.000000 0.000000 1.000000
vn 0.036731 0.999325 0.000000
vn 0.036731 0.999325 0.000000
vn 0.000000 0.000000 -1.000000
vn 0.000000 0.000000 -1.000000
vn -0.578819 -0.815456 0.000000
vn -0.578819 -0.815456 0.000000
vn 0.000000 0.000000 1.000000
vn 0.000000 0.000000 1.000000
vn -0.007751 0.999970 0.000000
vn -0.007751 0.999970 0.000000
vn -0.000000 0.000000 -1.000000
vn -0.000000 0.000000 -1.000000
vn 0.728312 -0.685246 0.000000
vn 0.728312 -0.685246 0.000000
vn 0.000000 0.000000 1.000000
vn 0.000000 0.000000 1.000000
vn -0.250007 0.968244 0.000000
vn -0.250007 0.968244 0.000000
vn -0.000000 0.000000 -1.000000
vn -0.000000 0.000000 -1.000000
vn -0.310316 -0.950633 0.000000
vn -0.310316 -0.950633 0.000000
vn 0.000000 0.000000 1.000000
vn 0.000000 0.000000 1.000000
vn -0.537382 0.843339 0.000000
vn -0.537382 0.843339 0.000000
vn 0.000000 0.000000 -1.000000
vn 0.000000 0.000000 -1.000000
vn 0.537382 -0.843339 0.000000
vn 0.537382 -0.843339 0.000000
vn 0.000000 0.000000 1.000000
vn 0.000000 0.000000 1.000000
vn -0.636345 0.771404 0.000000
vn -0.636345 0.771404 0.000000
vn -0.000000 0.000000 -1.000000
vn -0.000000 0.000000 -1.000000
vn 0.903610 -0.428355 0.000000
vn 0.903610 -0.428355 0.000000
vn 0.000000 0.000000 1.000000
vn -0.000000 0.000000 1.000000
vn -0.606453 0.795120 0.000000
vn -0.606453 0.795120 0.000000
vn -0.000000 0.000000 -1.000000
vn -0.000000 0.000000 -1.000000
vn 0.606453 -0.795120 0.000000
vn 0.606453 -0.795120 0.000000
vn -0.000000 0.000000 1.000000
vn -0.000000 0.000000 1.000000
s 1
g pCube1
usemtl initialShadingGroup
f 1/1/1 12/18/2 9/15/3 3/3/4
s 2
f 3/3/5 9/15/6 10/16/7 5/5/8
s 3
f 5/5/9 10/16/10 11/17/11 7/7/12
s 4
f 7/7/13 11/17/14 12/19/15 1/9/16
s off
f 2/2/17 8/11/18 6/12/19 4/4/20
f 7/13/21 1/1/22 3/3/23 5/14/24
s 2
f 9/15/6 13/20/25 14/21/26 10/16/7
s 3
f 11/17/11 10/16/10 14/21/27 15/22/28
s 4
f 12/19/15 11/17/14 15/22/29 16/24/30
s 1
f 9/15/3 12/18/2 16/23/31 13/20/32
s 2
f 13/20/25 17/25/33 18/26/34 14/21/26
s 3
f 15/22/28 14/21/27 18/26/35 19/27/36
s 4
f 16/24/30 15/22/29 19/27/37 20/29/38
s 1
f 13/20/32 16/23/31 20/28/39 17/25/40
s 2
f 17/25/33 21/30/41 22/31/42 18/26/34
s 3
f 19/27/36 18/26/35 22/31/43 23/32/44
s 4
f 20/29/38 19/27/37 23/32/45 24/34/46
s 1
f 17/25/40 20/28/39 24/33/47 21/30/48
s 2
f 21/30/41 25/35/49 26/36/50 22/31/42
s 3
f 23/32/44 22/31/43 26/36/51 27/37/52
s 4
f 24/34/46 23/32/45 27/37/53 28/39/54
s 1
f 21/30/48 24/33/47 28/38/55 25/35/56
s 2
f 25/35/49 29/40/57 30/41/58 26/36/50
s 3
f 27/37/52 26/36/51 30/41/59 31/42/60
s 4
f 28/39/54 27/37/53 31/42/61 32/44/62
s 1
f 25/35/56 28/38/55 32/43/63 29/40/64
s 2
f 29/40/57 33/45/65 34/46/66 30/41/58
s 3
f 31/42/60 30/41/59 34/46/67 35/47/68
s 4
f 32/44/62 31/42/61 35/47/69 36/49/70
s 1
f 29/40/64 32/43/63 36/48/71 33/45/72
s 2
f 33/45/65 37/50/73 38/51/74 34/46/66
s 3
f 35/47/68 34/46/67 38/51/75 39/52/76
s 4
f 36/49/70 35/47/69 39/52/77 40/54/78
s 1
f 33/45/72 36/48/71 40/53/79 37/50/80
s 2
f 37/50/73 41/55/81 42/56/82 38/51/74
s 3
f 39/52/76 38/51/75 42/56/83 43/57/84
s 4
f 40/54/78 39/52/77 43/57/85 44/59/86
s 1
f 37/50/80 40/53/79 44/58/87 41/55/88
s 2
f 41/55/81 45/60/89 46/61/90 42/56/82
s 3
f 43/57/84 42/56/83 46/61/91 47/62/92
s 4
f 44/59/86 43/57/85 47/62/93 48/64/94
s 1
f 41/55/88 44/58/87 48/63/95 45/60/96
s 2
f 45/60/89 4/4/97 6/6/98 46/61/90
s 3
f 47/62/92 46/61/91 6/6/99 8/8/100
s 4
f 48/64/94 47/62/93 8/8/101 2/10/102
s 1
f 45/60/96 48/63/95 2/2/103 4/4/104
