# This file uses centimeters as units for non-parametric coordinates.

mtllib pepper.mtl
g default
v -1.626143 11.573040 1.511866
v -1.743999 11.511681 1.627000
v -1.898356 11.431317 1.652021
v -2.040209 11.357464 1.578985
v -2.124519 11.313570 1.431080
v -2.124519 11.313570 1.255266
v -2.040209 11.357464 1.107362
v -1.898356 11.431317 1.034326
v -1.743999 11.511681 1.059347
v -1.626143 11.573040 1.174481
v -1.582208 11.595914 1.343173
v -1.577648 10.106364 1.343173
v -1.379264 12.658409 1.343173
v -1.436784 12.658409 1.539065
v -1.436784 12.658409 1.147281
v -1.591079 12.658409 1.013583
v -1.793163 12.658409 0.984528
v -1.978875 12.658409 1.069340
v -2.089254 12.658409 1.241092
v -2.089254 12.658409 1.445254
v -1.978875 12.658409 1.617007
v -1.793163 12.658409 1.701819
v -1.591079 12.658409 1.672763
vt 0.710313 0.114840
vt 0.603854 0.022592
vt 0.464421 0.002545
vt 0.336285 0.061063
vt 0.260127 0.179567
vt 0.260127 0.320433
vt 0.336285 0.438937
vt 0.464421 0.497455
vt 0.603854 0.477408
vt 0.710313 0.385160
vt 0.750000 0.250000
vt 0.250000 0.500000
vt 0.295455 0.500000
vt 0.340909 0.500000
vt 0.386364 0.500000
vt 0.431818 0.500000
vt 0.477273 0.500000
vt 0.522727 0.500000
vt 0.568182 0.500000
vt 0.613636 0.500000
vt 0.659091 0.500000
vt 0.704546 0.500000
vt 0.750000 0.500000
vt 0.500000 1.000000
vt 0.710313 0.114840
vt 0.750000 0.250000
vt 0.710313 0.385160
vt 0.603854 0.477408
vt 0.464421 0.497455
vt 0.336285 0.438937
vt 0.260127 0.320433
vt 0.260127 0.179567
vt 0.336285 0.061063
vt 0.464421 0.002545
vt 0.603854 0.022592
vn 0.000000 1.000000 -0.000000
vn 0.000000 1.000000 -0.000000
vn 0.000000 1.000000 -0.000000
vn 0.000000 1.000000 -0.000000
vn 0.000000 1.000000 -0.000000
vn 0.000000 1.000000 -0.000000
vn 0.000000 1.000000 -0.000000
vn 0.000000 1.000000 -0.000000
vn 0.000000 1.000000 -0.000000
vn 0.000000 1.000000 -0.000000
vn 0.000000 1.000000 -0.000000
vn 0.712658 -0.056856 0.699203
vn 0.712658 -0.056856 0.699203
vn 0.712658 -0.056856 0.699203
vn 0.240784 -0.164680 0.956506
vn 0.240784 -0.164680 0.956506
vn 0.240784 -0.164680 0.956506
vn -0.316001 -0.287264 0.904225
vn -0.316001 -0.287264 0.904225
vn -0.316001 -0.287264 0.904225
vn -0.750816 -0.379491 0.540613
vn -0.750816 -0.379491 0.540613
vn -0.750816 -0.379491 0.540613
vn -0.910894 -0.412640 0.000000
vn -0.910894 -0.412640 0.000000
vn -0.910894 -0.412640 0.000000
vn -0.750816 -0.379491 -0.540613
vn -0.750816 -0.379491 -0.540613
vn -0.750816 -0.379491 -0.540613
vn -0.316002 -0.287264 -0.904225
vn -0.316002 -0.287264 -0.904225
vn -0.316002 -0.287264 -0.904225
vn 0.240784 -0.164680 -0.956506
vn 0.240784 -0.164680 -0.956506
vn 0.240784 -0.164680 -0.956506
vn 0.712658 -0.056856 -0.699203
vn 0.712658 -0.056856 -0.699203
vn 0.712658 -0.056856 -0.699203
vn 0.967616 0.002963 -0.252410
vn 0.967616 0.002963 -0.252410
vn 0.967616 0.002963 -0.252410
vn 0.967616 0.002963 0.252410
vn 0.967616 0.002963 0.252410
vn 0.967616 0.002963 0.252410
vn 0.951010 -0.176911 0.253541
vn 0.951010 -0.176911 0.253541
vn 0.951010 -0.176911 0.253541
vn 0.951010 -0.176911 0.253541
vn 0.951010 -0.176911 -0.253541
vn 0.951010 -0.176911 -0.253541
vn 0.951010 -0.176911 -0.253541
vn 0.951010 -0.176911 -0.253541
vn 0.684810 -0.128459 -0.717310
vn 0.684810 -0.128459 -0.717310
vn 0.684810 -0.128459 -0.717310
vn 0.684810 -0.128459 -0.717310
vn 0.162366 -0.057310 -0.985065
vn 0.162366 -0.057310 -0.985065
vn 0.162366 -0.057310 -0.985065
vn 0.162366 -0.057310 -0.985065
vn -0.433607 -0.002740 -0.901098
vn -0.433607 -0.002740 -0.901098
vn -0.433607 -0.002740 -0.901098
vn -0.433607 -0.002740 -0.901098
vn -0.855152 0.021004 -0.517951
vn -0.855152 0.021004 -0.517951
vn -0.855152 0.021004 -0.517951
vn -0.855152 0.021004 -0.517951
vn -0.999656 0.026214 -0.000000
vn -0.999656 0.026214 -0.000000
vn -0.999656 0.026214 -0.000000
vn -0.999656 0.026214 -0.000000
vn -0.855152 0.021004 0.517952
vn -0.855152 0.021004 0.517952
vn -0.855152 0.021004 0.517952
vn -0.855152 0.021004 0.517952
vn -0.433606 -0.002740 0.901098
vn -0.433606 -0.002740 0.901098
vn -0.433606 -0.002740 0.901098
vn -0.433606 -0.002740 0.901098
vn 0.162367 -0.057310 0.985065
vn 0.162367 -0.057310 0.985065
vn 0.162367 -0.057310 0.985065
vn 0.162367 -0.057310 0.985065
vn 0.684810 -0.128459 0.717310
vn 0.684810 -0.128459 0.717310
vn 0.684810 -0.128459 0.717310
vn 0.684810 -0.128459 0.717310
s off
g pCone1
usemtl initialShadingGroup
f 14/25/1 13/26/2 15/27/3 16/28/4 17/29/5 18/30/6 19/31/7 20/32/8 21/33/9 22/34/10 23/35/11
f 1/12/12 2/13/13 12/24/14
f 2/13/15 3/14/16 12/24/17
f 3/14/18 4/15/19 12/24/20
f 4/15/21 5/16/22 12/24/23
f 5/16/24 6/17/25 12/24/26
f 6/17/27 7/18/28 12/24/29
f 7/18/30 8/19/31 12/24/32
f 8/19/33 9/20/34 12/24/35
f 9/20/36 10/21/37 12/24/38
f 10/21/39 11/22/40 12/24/41
f 11/22/42 1/23/43 12/24/44
f 1/1/45 11/11/46 13/26/47 14/25/48
f 11/11/49 10/10/50 15/27/51 13/26/52
f 10/10/53 9/9/54 16/28/55 15/27/56
f 9/9/57 8/8/58 17/29/59 16/28/60
f 8/8/61 7/7/62 18/30/63 17/29/64
f 7/7/65 6/6/66 19/31/67 18/30/68
f 6/6/69 5/5/70 20/32/71 19/31/72
f 5/5/73 4/4/74 21/33/75 20/32/76
f 4/4/77 3/3/78 22/34/79 21/33/80
f 3/3/81 2/2/82 23/35/83 22/34/84
f 2/2/85 1/1/86 14/25/87 23/35/88
